<?xml version="1.0" encoding="utf-8" ?>
<svg baseProfile="full" height="200mm" version="1.1" viewBox="0,0,200,200" width="200mm" xmlns="http://www.w3.org/2000/svg" xmlns:ev="http://www.w3.org/2001/xml-events" xmlns:xlink="http://www.w3.org/1999/xlink"><defs /><rect fill="#1a1a1a" height="200" width="200" x="0" y="0" /><text alignment-baseline="middle" fill="#e1ed5e" style="dominant-baseline: central; font-size:9.0px; font-family:Arial;" text-anchor="middle" x="100.0" y="100.0">2025</text><line stroke="#e1ed5e" stroke-width="0.3" x1="100.0" x2="100.0" y1="15.0" y2="10.0" /><path d="M 100.0 14.0 a86.0,86.0 0 0,1 42.46469731375804,11.215312516191453" fill="none" id="id109" stroke="none" /><text fill="#e1ed5e" style="font-size:6.75px; font-family:Arial;" text-anchor="middle"><textPath startOffset="22.20632615414155" xlink:href="#id109">January</textPath></text><path d="M 100.0 79.0 l 0.0 -45.92992899369888 a66.92992899369888,66.92992899369888 0 0,0 1.152088705253265,0.009916391213500035 l -0.7906082259807365 45.92312397909394" fill="#37ff74" stroke="none" /><path d="M 101.08401301168833 79.027996857942 l 1.3644542817314378 -26.397597791836805 a47.432837620401685,47.432837620401685 0 0,0 0.8150270449842439,0.04916465709576485 l -1.8186433755552938 26.370199865360735" fill="#ccff1d" stroke="none" /><path d="M 101.44485096284872 79.0497635885617 l 2.696305004378268 -39.09623119030547 a60.189097386421764,60.189097386421764 0 0,0 1.0329876757853274,0.08017972469038687 l -3.3688828695259367 39.04402620342661" fill="#3cff2e" stroke="none" /><path d="M 102.16513564639614 79.11191278185805 l 2.770957414422052 -26.732736235970325 a47.875963083292504,47.875963083292504 0 0,0 0.8189828590979935,0.09202226673970552 l -3.2307069770297705 26.681078015760022" fill="#c6ff1e" stroke="none" /><path d="M 102.52436894288641 79.15227682838746 l 5.084440489659384 -41.99029944084001 a63.29700677618094,63.29700677618094 0 0,0 1.08052593613333,0.14028327781211727 l -5.80648115430056 41.89655783986375" fill="#32ff48" stroke="none" /><path d="M 103.2404852339499 79.25152402106235 l 4.824278315749494 -30.889331542495025 a52.26378838864524,52.26378838864524 0 0,0 0.8876650902270445,0.14647234569544879 l -5.355272612115414 30.80171293385995" fill="#92ff23" stroke="none" /><path d="M 104.66035177308747 79.52364482259891 l 5.849354797058252 -25.700520521833898 a47.357763688049744,47.357763688049744 0 0,0 0.7933018811372488,0.18774892470937493 l -6.290880365158024 25.596025684983655" fill="#cdff1d" stroke="none" /><path d="M 105.36241919743992 79.69619591428918 l 6.779849949865185 -25.670642306050564 a47.55086141253952,47.55086141253952 0 0,0 0.78957551160873,0.21582081371041215 l -7.220723350697626 25.550134951513858" fill="#caff1d" stroke="none" /><path d="M 105.71112130821622 79.79150937346287 l 7.283037996868109 -25.7706319213857 a47.77999462455824,47.77999462455824 0 0,0 0.789529787230656,0.2304853952249102 l -7.7255580018221925 25.641448197242088" fill="#c8ff1d" stroke="none" /><path d="M 106.0581310904928 79.89281104454417 l 1.240411173038835 -4.1169762532691685 a25.299780616285187,25.299780616285187 0 0,0 0.41589782552149934,0.12922147887640809 l -1.3110943712710525 4.09501463951024" fill="#ff0000" stroke="none" /><path d="M 106.40334571778207 80.00007090966166 l 14.314497412974564 -44.70927322076325 a67.94490332416197,67.94490332416197 0 0,0 1.1107929739172893,0.3662109791822921 l -15.08197320913427 44.456248517321725" fill="#38ff80" stroke="none" /><path d="M 107.4271985657038 80.35727306442388 l 10.482262700773429 -27.722461177898495 a50.638027685527845,50.638027685527845 0 0,0 0.8126603724398015,0.3152995990702501 l -10.957906238212898 27.5379188749377" fill="#a5ff21" stroke="none" /><path d="M 107.76421540070413 80.48803036053334 l 8.396426939765508 -21.100757652067042 a43.70995285873764,43.70995285873764 0 0,0 0.696686965778603,0.28419610610902674 l -8.758397775132499 20.953100659774435" fill="#faff18" stroke="none" /><path d="M 108.43124777332544 80.76684994638697 l 6.515673888037254 -14.863391156111348 a37.22881397006015,37.22881397006015 0 0,0 0.584701359790456,0.2623384565024307 l -6.770557366294491 14.749032369092387" fill="#ffae10" stroke="none" /><line stroke="#e1ed5e" stroke-width="0.3" x1="143.23703022742887" x2="145.7803849466894" y1="26.81831364943548" y2="22.513508569990506" /><path d="M 143.74570117128098 25.957352633546492 a86.0,86.0 0 0,1 28.547481713284135,27.462654790039103" fill="none" id="id110" stroke="none" /><text fill="#e1ed5e" style="font-size:6.75px; font-family:Arial;" text-anchor="middle"><textPath startOffset="19.985693538727396" xlink:href="#id110">February</textPath></text><path d="M 115.19652480421416 85.50635884689758 l 31.049530441938106 -29.613398984021973 a63.907187510389384,63.907187510389384 0 0,0 0.752378338739493,0.8025847537046897 l -31.55467610264806 29.07454481343923" fill="#33ff4f" stroke="none" /><path d="M 115.68641384162765 86.03803664274999 l 28.27761011134247 -25.168974897081995 a58.856314281491294,58.856314281491294 0 0,0 0.6670610323244867,0.7625660731059076 l -28.706663007244806 24.678493267773142" fill="#4aff2c" stroke="none" /><path d="M 116.15771136456269 86.58626213691792 l 19.433005952326607 -16.132807540300906 a46.25686440307963,46.25686440307963 0 0,0 0.5033220603771801,0.6170133325521014 l -19.707826504780197 15.795910038140702" fill="#daff1b" stroke="none" /><line stroke="#e1ed5e" stroke-width="0.3" x1="172.23445277983987" x2="176.4835382374775" y1="55.19839476539836" y2="52.563006222186495" /><path d="M 173.08426987136738 54.67131705675599 a86.0,86.0 0 0,1 12.851231095245387,41.99856678651699" fill="none" id="id111" stroke="none" /><text fill="#e1ed5e" style="font-size:6.75px; font-family:Arial;" text-anchor="middle"><textPath startOffset="22.20632615414155" xlink:href="#id111">March</textPath></text><path d="M 118.21658344932153 89.55222093294921 l 20.137565680469972 -11.54952232195937 a44.21450015401322,44.21450015401322 0 0,0 0.3729648022075232,0.6634627665961982 l -20.33338812396993 11.201176045428378" fill="#f4ff19" stroke="none" /><path d="M 118.73160827565052 90.50648371742162 l 35.10855549376064 -17.793647952327177 a60.36019024737847,60.36019024737847 0 0,0 0.4617266752127952,0.9308128022853674 l -35.40964218192684 17.18667556154286" fill="#3aff2e" stroke="none" /><path d="M 119.04729006885535 91.15688171328212 l 36.62199927645843 -17.002558911378014 a61.37645155953903,61.37645155953903 0 0,0 0.43664284076221427,0.9620846204176905 l -36.90924443418399 16.36965228211826" fill="#30ff2f" stroke="none" /><path d="M 119.47837535516314 92.15188598940014 l 19.29181030991743 -7.772944304770515 a41.79886074281235,41.79886074281235 0 0,0 0.2631466189426843,0.6696794424353214 l -19.422750478741815 7.43971585743941" fill="#ffeb16" stroke="none" /><path d="M 119.97218684219823 93.5106431181261 l 26.69455271578802 -8.67358595948715 a49.06831377358815,49.06831377358815 0 0,0 0.25409095445803376,0.8055377622467029 l -26.83989915401426 8.212798030814028" fill="#b8ff1f" stroke="none" /><path d="M 120.18372546131832 94.20196356495316 l 27.549833404591336 -7.914046302572827 a49.664009654966335,49.664009654966335 0 0,0 0.2289587219676483,0.8236863423674673 l -27.681978897125347 7.438648656786408" fill="#b1ff20" stroke="none" /><path d="M 120.37134235888165 94.90015583598534 l 24.951905646645233 -6.246560886922017 a46.72191902469779,46.72191902469779 0 0,0 0.18859458296020848,0.7818463024043886 l -25.05573302986626 5.816129352858223" fill="#d5ff1c" stroke="none" /><path d="M 120.53481517161879 95.60439243477599 l 22.29049182187408 -4.771421299190095 a43.7954488193455,43.7954488193455 0 0,0 0.1514503013799804,0.7385254560085527 l -22.369321419169058 4.3870201870181305" fill="#f9ff18" stroke="none" /><path d="M 120.67395015179393 96.31383870115 l 53.11409668134435 -9.470233127806944 a74.95176161878504,74.95176161878504 0 0,0 0.21553320761611544,1.2720891919856434 l -53.26924175048069 8.554558147505464" fill="#41ffd0" stroke="none" /><path d="M 120.83666639777658 97.38593545837742 l 23.498960686347907 -2.948062742978876 a44.68316337137133,44.68316337137133 0 0,0 0.0891740763608161,0.7639890285687838 l -23.54622511571231 2.5431299760852393" fill="#eeff19" stroke="none" /><path d="M 120.87857604477298 97.74499172005257 l 18.95513434454659 -2.04726533087344 a40.065372101136816,40.065372101136816 0 0,0 0.06815477390779295,0.6863092722005133 l -18.987566244136612 1.7206805279684918" fill="#ffd413" stroke="none" /><path d="M 120.91429891909075 98.10471618934814 l 27.042205868562753 -2.450603540920893 a48.15301743734025,48.15301743734025 0 0,0 0.0677020331183972,0.8261362870059679 l -27.080382385500645 1.9847533367071566" fill="#c3ff1e" stroke="none" /><path d="M 120.96714384426684 98.82574320788733 l 33.53534977086671 -1.8781343103668304 a54.58790068971484,54.58790068971484 0 0,0 0.044466762614726194,0.9386230786582248 l -33.56271014171493 1.3006001250856059" fill="#78ff26" stroke="none" /><path d="M 120.98425023603335 99.18683210126433 l 19.559680194466257 -0.7579638950532438 a40.5743607450154,40.5743607450154 0 0,0 0.02103743033612421,0.6981298945867295 l -19.569829319258023 0.4211638530415153" fill="#ffdb14" stroke="none" /><line stroke="#e1ed5e" stroke-width="0.3" x1="184.98032266829074" x2="189.97916517819016" y1="98.17113171792111" y2="98.06355123074" /><path d="M 185.9800911702706 98.14961562048488 a86.0,86.0 0 0,1 -9.607161424134198,41.387399972396054" fill="none" id="id112" stroke="none" /><text fill="#e1ed5e" style="font-size:6.75px; font-family:Arial;" text-anchor="middle"><textPath startOffset="21.466115282336823" xlink:href="#id112">April</textPath></text><path d="M 120.99513854157772 99.54816195383933 l 25.471469307164814 -0.5481735165404581 a46.47736726724477,46.47736726724477 0 0,0 0.010329025820169122,0.7999944327579267 l -25.477131340102698 0.10964282572206858" fill="#d8ff1c" stroke="none" /><path d="M 120.9904718944345 100.63252640178507 l 26.998966822970218 0.8135862510540249 a48.01122233620224,48.01122233620224 0 0,0 -0.03200260532921451,0.8258450431669339 l -26.980962084789798 -1.2782085412349649" fill="#c5ff1e" stroke="none" /><path d="M 120.95626037817324 101.35467743843564 l 39.66133395502642 2.5638312044975273 a60.74411455218605,60.74411455218605 0 0,0 -0.07643183558840191,1.0428516712276443 l -39.61132556077368 -3.2461560122219417" fill="#36ff2e" stroke="none" /><path d="M 120.8583938346157 102.4346265915055 l 26.38556044715999 3.079766716736521 a47.564690157053434,47.564690157053434 0 0,0 -0.10192091762898586,0.812409994388389 l -26.328638020284153 -3.533494465412305" fill="#caff1d" stroke="none" /><path d="M 120.76222939487914 103.15116336523771 l 26.017240961365076 3.9487366709394083 a47.31519235229251,47.31519235229251 0 0,0 -0.12914399131864712,0.804179757218782 l -25.94541521568514 -4.395995657851396" fill="#cdff1d" stroke="none" /><path d="M 120.64145759157962 103.86396538481128 l 24.811454703272403 4.644565515536393 a46.242430020119855,46.242430020119855 0 0,0 -0.1531947121841857,0.7811365369837473 l -24.727830058112552 -5.070965779588085" fill="#daff1b" stroke="none" /><path d="M 120.49622156327973 104.57218783832717 l 33.4616750911106 7.4644520908052465 a55.284132553106524,55.284132553106524 0 0,0 -0.21518541466243946,0.9270131344402529 l -33.32822911051761 -8.039333882594065" fill="#70ff27" stroke="none" /><path d="M 120.41448212921028 104.9243191809786 l 23.082273503243286 5.567835688076407 a44.74430761946839,44.74430761946839 0 0,0 -0.18704971231860112,0.7471706203612638 l -22.983012476629625 -5.964334147835067" fill="#edff1a" stroke="none" /><path d="M 120.23288151984713 105.62410040840565 l 29.200296531500125 8.116757837349162 a51.307409577819534,51.307409577819534 0 0,0 -0.24385034562700264,0.8488750432875242 l -29.056253548987023 -8.618190356141268" fill="#9eff22" stroke="none" /><path d="M 120.02730092923936 106.31721596034902 l 60.08190278771807 18.951647881047055 a84.0,84.0 0 0,0 -0.4468309959350121,1.375204400088819 l -59.746779540766816 -19.98305118111367" fill="#4dd2ff" stroke="none" /><path d="M 119.79798401119884 107.00284435728193 l 21.538149263767064 7.618366948511029 a43.84581775009323,43.84581775009323 0 0,0 -0.2578045118344242,0.7093672939362788 l -21.403820490927412 -7.987982039453438" fill="#f9ff18" stroke="none" /><path d="M 119.67450827220406 107.3425965602758 l 33.050246054672165 12.334469539965712 a56.27687490561934,56.27687490561934 0 0,0 -0.3465200881855814,0.90465460478173 l -32.83303168689308 -12.901547711580585" fill="#65ff29" stroke="none" /><path d="M 119.41010516605496 108.01547362559984 l 24.636928087996072 10.173909188832527 a47.654955520422476,47.654955520422476 0 0,0 -0.3196263679226508,0.7555023176664064 l -24.458150738881113 -10.596486032165098" fill="#c9ff1d" stroke="none" /><line stroke="#e1ed5e" stroke-width="0.3" x1="174.80103733775053" x2="179.2010983576182" y1="140.37084112569926" y2="142.7455964860345" /><path d="M 175.68104954172406 140.8457921977663 a86.0,86.0 0 0,1 -30.038265399797805,32.042727171017184" fill="none" id="id113" stroke="none" /><text fill="#e1ed5e" style="font-size:6.75px; font-family:Arial;" text-anchor="middle"><textPath startOffset="22.206326154141568" xlink:href="#id113">May</textPath></text><path d="M 117.14729908036423 112.12312394758627 l 30.796967820248664 21.77342661050557 a58.71651274023758,58.71651274023758 0 0,0 -0.5905768577130259,0.8202596020517248 l -30.417611170160036 -22.300319818008425" fill="#4bff2c" stroke="none" /><path d="M 116.93607887273984 112.41649034213515 l 20.88677391620502 15.312896719343449 a46.898689746084486,46.898689746084486 0 0,0 -0.4829196792549135,0.6469498279680586 l -20.620092970255012 -15.670159426820822" fill="#d2ff1c" stroke="none" /><path d="M 116.71984013943494 112.70617746262583 l 9.87071301057459 7.50120994872437 a33.39754516152161,33.39754516152161 0 0,0 -0.35177663387525065,0.45471871925121393 l -9.740129559481272 -7.670006662088837" fill="#ff780b" stroke="none" /><path d="M 116.498646956653 112.99209946851258 l 34.03899553402304 26.804502026631475 a64.32591079089892,64.32591079089892 0 0,0 -0.6925207724085537,0.8640261435162412 l -33.57255684955963 -27.386456003725964" fill="#33ff54" stroke="none" /><path d="M 116.0416608686014 113.55231037782055 l 12.292449480253365 10.38490291152732 a37.09193968129479,37.09193968129479 0 0,0 -0.416237781925999,0.4841785763410551 l -12.111869188756588 -10.594958587029904" fill="#ffac0f" stroke="none" /><path d="M 115.80600337817218 113.82643327865902 l 19.27105064916359 16.857512277789453 a46.603693353078,46.603693353078 0 0,0 -0.5333707271959456,0.5992476662289024 l -18.978021072319304 -17.186734113759222" fill="#d6ff1c" stroke="none" /><path d="M 115.32070863581623 114.36230785411682 l 16.57710985411748 15.540113758169152 a43.72214133246066,43.72214133246066 0 0,0 -0.5194470391491394,0.5446381438259775 l -16.307156263589377 -15.823159018577638" fill="#faff18" stroke="none" /><path d="M 114.81725581225074 114.88116024355365 l 26.71058123180602 26.825779654848535 a58.85601146226836,58.85601146226836 0 0,0 -0.7240692078213253,0.708654116220118 l -26.2448620716089 -27.281583873991227" fill="#4aff2c" stroke="none" /><path d="M 114.29624159901734 115.38237550388516 l 15.48309457330323 16.659397719264017 a43.7433891479364,43.7433891479364 0 0,0 -0.5559585843538343,0.507854985156422 l -15.194036439482533 -16.923445471007025" fill="#faff18" stroke="none" /><path d="M 114.0293411484842 115.62618273729858 l 17.64972002670405 19.658638811362444 a47.41921075536973,47.41921075536973 0 0,0 -0.6120637949703405,0.540075135624144 l -17.30871387882712 -19.95953708875888" fill="#ccff1d" stroke="none" /><path d="M 112.92097659922987 116.55440617244103 l 23.142202211858198 29.649880734456083 a58.61219151793743,58.61219151793743 0 0,0 -0.8006739955492177,0.6139226772964607 l -22.628399487815486 -30.043842753579916" fill="#4cff2c" stroke="none" /><path d="M 112.63410532772338 116.77436683061366 l 11.966317387406644 15.887741336733022 a40.890024549987004,40.890024549987004 0 0,0 -0.5658693187704812,0.41861659400160994 l -11.691063098217597 -16.0913678794744" fill="#ffdf14" stroke="none" /><path d="M 112.04921762599082 117.19931262002967 l 12.497683803289501 17.839462895532343 a42.781610060968404,42.781610060968404 0 0,0 -0.60677181054323,0.41734318413239685 l -12.188755108123388 -18.051946869029834" fill="#fff817" stroke="none" /><path d="M 111.45004920935366 117.60387380957326 l 8.254817617468857 12.691366211793493 a36.13977510465488,36.13977510465488 0 0,0 -0.5244022449676019,0.33469832397180466 l -8.035133570454324 -12.831578964589106" fill="#ff9f0e" stroke="none" /><line stroke="#e1ed5e" stroke-width="0.3" x1="143.8653032363475" x2="146.44561519142675" y1="172.8068346515853" y2="177.08958963109032" /><path d="M 144.38136562736335 173.6633856474863 a86.0,86.0 0 0,1 -40.68145358897372,12.25698825130547" fill="none" id="id114" stroke="none" /><text fill="#e1ed5e" style="font-size:6.75px; font-family:Arial;" text-anchor="middle"><textPath startOffset="21.466115282336833" xlink:href="#id114">June</textPath></text><line stroke="#e1ed5e" stroke-width="0.3" x1="102.19456741930631" x2="102.32365962044197" y1="184.97166512339345" y2="189.96999836594603" /><path d="M 102.22038585953345 185.97133177190398 a86.0,86.0 0 0,1 -42.740103519485714,-10.115201625700543" fill="none" id="id115" stroke="none" /><text fill="#e1ed5e" style="font-size:6.75px; font-family:Arial;" text-anchor="middle"><textPath startOffset="22.20632615414155" xlink:href="#id115">July</textPath></text><line stroke="#e1ed5e" stroke-width="0.3" x1="58.666819895761336" x2="56.23545636021788" y1="174.27360380694188" y2="178.64263932499728" /><path d="M 58.180547188652646 175.14741091055294 a86.0,86.0 0 0,1 -31.652253787137756,-30.449443065178592" fill="none" id="id116" stroke="none" /><text fill="#e1ed5e" style="font-size:6.75px; font-family:Arial;" text-anchor="middle"><textPath startOffset="22.20632615414155" xlink:href="#id116">August</textPath></text><line stroke="#e1ed5e" stroke-width="0.3" x1="26.63291911575756" x2="22.317208475507996" y1="142.92168965132927" y2="145.44649492493687" /><path d="M 25.769776987707644 143.4266507060508 a86.0,86.0 0 0,1 -11.730757126820373,-40.83630448921669" fill="none" id="id117" stroke="none" /><text fill="#e1ed5e" style="font-size:6.75px; font-family:Arial;" text-anchor="middle"><textPath startOffset="21.46611528233685" xlink:href="#id117">September</textPath></text><line stroke="#e1ed5e" stroke-width="0.3" x1="15.007084014347285" x2="10.007500721073583" y1="101.09737516637583" y2="101.16192664675087" /><path d="M 14.007167355692545 101.11028546245083 a86.0,86.0 0 0,1 10.666146001902534,-42.60595125391555" fill="none" id="id118" stroke="none" /><text fill="#e1ed5e" style="font-size:6.75px; font-family:Arial;" text-anchor="middle"><textPath startOffset="22.20632615414155" xlink:href="#id118">October</textPath></text><line stroke="#e1ed5e" stroke-width="0.3" x1="26.266209847984243" x2="21.928928074336255" y1="57.711370442889674" y2="55.22380399835377" /><path d="M 25.398753493254645 57.213857153982495 a86.0,86.0 0 0,1 29.58750427330803,-30.492523968695096" fill="none" id="id119" stroke="none" /><text fill="#e1ed5e" style="font-size:6.75px; font-family:Arial;" text-anchor="middle"><textPath startOffset="21.46611528233685" xlink:href="#id119">November</textPath></text><line stroke="#e1ed5e" stroke-width="0.3" x1="56.762969772571076" x2="54.21961505331055" y1="26.818313649435495" y2="22.513508569990535" /><path d="M 56.25429882871897 25.957352633546506 a86.0,86.0 0 0,1 42.265352541879196,-11.944610805530505" fill="none" id="id120" stroke="none" /><text fill="#e1ed5e" style="font-size:6.75px; font-family:Arial;" text-anchor="middle"><textPath startOffset="22.20632615414155" xlink:href="#id120">December</textPath></text></svg>