<?xml version="1.0" encoding="utf-8" ?>
<svg baseProfile="full" height="200mm" version="1.1" viewBox="0,0,200,200" width="200mm" xmlns="http://www.w3.org/2000/svg" xmlns:ev="http://www.w3.org/2001/xml-events" xmlns:xlink="http://www.w3.org/1999/xlink"><defs /><rect fill="#1a1a1a" height="200" width="200" x="0" y="0" /><text alignment-baseline="middle" fill="#e1ed5e" style="dominant-baseline: central; font-size:9.0px; font-family:Arial;" text-anchor="middle" x="100.0" y="100.0">2024</text><line stroke="#e1ed5e" stroke-width="0.3" x1="100.0" x2="100.0" y1="15.0" y2="10.0" /><path d="M 100.0 14.0 a86.0,86.0 0 0,1 42.35913384403234,11.155469271406648" fill="none" id="id97" stroke="none" /><text fill="#e1ed5e" style="font-size:6.75px; font-family:Arial;" text-anchor="middle"><textPath startOffset="22.145653131862478" xlink:href="#id97">January</textPath></text><path d="M 101.08105385017728 79.02784411241856 l 2.0875094049284106 -40.49712477299053 a61.55089161035584,61.55089161035584 0 0,0 1.054735046536628,0.06345024126147515 l -2.782388803597501 40.45532255390436" fill="#30ff38" stroke="none" /><path d="M 101.44090949804482 79.04949213459386 l 1.9925183358986915 -28.970779306302525 a50.03921801518386,50.03921801518386 0 0,0 0.8564593538980372,0.0662953706192264 l -2.4895466845719625 28.932306168688243" fill="#a4ff21" stroke="none" /><path d="M 101.80034050326958 79.07731436759882 l 4.416383811580575 -51.32507431450583 a72.51473283790509,72.51473283790509 0 0,0 1.239312822692537,0.11736421281766678 l -5.296796197658124 51.24169834618298" fill="#3effb8" stroke="none" /><path d="M 102.15924093988457 79.11130261209362 l 2.549598644889049 -24.665054079861335 a45.79647850023274,45.79647850023274 0 0,0 0.7812968609402087,0.08754594289765254 l -2.9726314074300544 24.61765237645671" fill="#d6ff1c" stroke="none" /><path d="M 102.87502721639298 79.19773525538626 l 4.465354248834212 -32.30907893083342 a53.61619183666919,53.61619183666919 0 0,0 0.9106452171934403,0.1338334871371153 l -5.019324571635335 32.22766437039743" fill="#7cff26" stroke="none" /><path d="M 103.23170211078529 79.25015418208739 l 7.569297084001277 -48.600317126641464 a70.18622859252363,70.18622859252363 0 0,0 1.188896213629547,0.19563241952467345 l -8.402470800683894 48.46321870862112" fill="#3bff9e" stroke="none" /><path d="M 103.94208987418118 79.37332000966035 l 6.536686273694864 -34.20270472467495 a55.82173571096095,55.82173571096095 0 0,0 0.9396752265517516,0.18796136244992714 l -7.122857985777572 34.085453965562166" fill="#64ff29" stroke="none" /><path d="M 104.64783097203109 79.52079915486377 l 10.738607025485244 -47.31628396025771 a69.51956727605412,69.51956727605412 0 0,0 1.1615324210992515,0.27411848869061 l -11.549271600324381 47.124969327920866" fill="#3aff96" stroke="none" /><path d="M 106.72888874123014 80.10723608172694 l 10.354960260036105 -30.61260005293831 a53.316504823202735,53.316504823202735 0 0,0 0.8644743879540225,0.3007090667249733 l -10.878940420035144 30.430332553644746" fill="#7fff26" stroke="none" /><path d="M 108.07796709384702 80.6158196554323 l 14.237378800646992 -34.16452618578748 a58.012400686965314,58.012400686965314 0 0,0 0.9159465368074547,0.39096311101533043 l -14.821760412624876 33.91508842511274" fill="#4dff2c" stroke="none" /><path d="M 109.3889696526874 81.21577127319529 l 12.975775175656478 -25.960242478508864 a50.02249008875977,50.02249008875977 0 0,0 0.7648028509334793,0.39051378512269713 l -13.419505248303537 25.733670741713333" fill="#a4ff21" stroke="none" /><path d="M 109.71004243097381 81.37971332152246 l 15.536624503572957 -29.793526066329864 a54.60120379435982,54.60120379435982 0 0,0 0.8273673199467922,0.4405264962220404 l -16.045780639306308 29.52242910238525" fill="#71ff27" stroke="none" /><path d="M 110.02825361518725 81.54914285379988 l 12.433465358605888 -22.876175849445882 a47.03671412291543,47.03671412291543 0 0,0 0.7061236903471013,0.39167490791803744 l -12.824333237109089 22.6593680260947" fill="#c7ff1e" stroke="none" /><line stroke="#e1ed5e" stroke-width="0.3" x1="143.13028292997686" x2="145.6673583964461" y1="26.7553504044142" y2="22.446841604673864" /><path d="M 143.63769802327073 25.89364864446614 a86.0,86.0 0 0,1 29.32050498858742,28.57503671076993" fill="none" id="id98" stroke="none" /><text fill="#e1ed5e" style="font-size:6.75px; font-family:Arial;" text-anchor="middle"><textPath startOffset="20.669276256404974" xlink:href="#id98">February</textPath></text><path d="M 116.57777611688842 87.10902102172516 l 22.901522557596923 -17.808362459408187 a50.01064475225912,50.01064475225912 0 0,0 0.5211776531080059,0.6822382779458034 l -23.203852188059237 17.412603268221503" fill="#a4ff21" stroke="none" /><path d="M 117.42321728460499 88.27688183743584 l 50.45007000739022 -33.945058616060194 a81.8068792835016,81.8068792835016 0 0,0 0.7739536972282977,1.1718645418459472 l -51.02534814353923 33.074014195875186" fill="#4ae7ff" stroke="none" /><path d="M 117.62189284568427 88.57770195909679 l 24.391978077358395 -15.810585494225116 a50.06790684236714,50.06790684236714 0 0,0 0.4612978186343378,0.725236790424297 l -24.659793587618623 15.389535029122147" fill="#a3ff21" stroke="none" /><path d="M 117.81537515405839 88.88188828441811 l 24.72217095046116 -15.428463116945696 a50.14143460186508,50.14143460186508 0 0,0 0.44943925239216126,0.7341252421114989 l -24.98337816730872 15.001800758709644" fill="#a3ff22" stroke="none" /><line stroke="#e1ed5e" stroke-width="0.3" x1="172.87174338648825" x2="177.1583165268699" y1="56.24261187166439" y2="53.66864786411523" /><path d="M 173.72905801456457 55.72781907015455 a86.0,86.0 0 0,1 12.242430191666344,42.057860355516425" fill="none" id="id99" stroke="none" /><text fill="#e1ed5e" style="font-size:6.75px; font-family:Arial;" text-anchor="middle"><textPath startOffset="22.145653131862474" xlink:href="#id99">March</textPath></text><path d="M 118.18653347947321 89.5 l 30.398805243619435 -17.550758390446692 a56.10151678089338,56.10151678089338 0 0,0 0.47436940723714494,0.8381652893893341 l -30.695608015877955 17.02633633095824" fill="#61ff29" stroke="none" /><path d="M 118.70294669586156 90.45014215332178 l 25.978415732362027 -13.264764176484665 a50.169025568592204,50.169025568592204 0 0,0 0.38505942358229894,0.7703767882465368 l -26.202295069156065 12.816855532074376" fill="#a2ff22" stroke="none" /><path d="M 118.8641267826498 90.77261029715802 l 29.401784125659145 -14.381885958051246 a53.73077379901449,53.73077379901449 0 0,0 0.39817251852336927,0.8320274235146389 l -29.644335902142426 13.875046032471504" fill="#7aff26" stroke="none" /><path d="M 119.31412917781788 91.75594674310238 l 50.4100804276295 -21.517065765883125 a75.81022101664446,75.81022101664446 0 0,0 0.5006151607136059,1.2012941431624227 l -50.77202143287959 20.648539113279423" fill="#42ffdb" stroke="none" /><path d="M 119.71291397450082 92.76114493625339 l 23.436717012821102 -8.606287119464406 a45.96693578158355,45.96693578158355 0 0,0 0.2656447385739981,0.7430556123871837 l -23.581001921439046 8.202696550696306" fill="#d4ff1c" stroke="none" /><path d="M 119.94978838288452 93.4421083053983 l 21.119509695768834 -6.942402323764236 a43.23129865335538,43.23129865335538 0 0,0 0.22569884357994743,0.706998412918956 l -21.235573255126038 6.578834877153893" fill="#f5ff19" stroke="none" /><path d="M 120.26092885502905 94.47779374421319 l 59.24078159271453 -16.14633845514874 a82.4017463043513,82.4017463043513 0 0,0 0.3602546243237806,1.367945487401122 l -59.509225697843036 15.127012463374822" fill="#4be1ff" stroke="none" /><path d="M 120.592083275326 95.88100663000786 l 31.745655824872376 -6.350020253918745 a53.37451808099129,53.37451808099129 0 0,0 0.1720024541044636,0.8999895211934281 l -31.849984571258997 5.804128167692003" fill="#7eff26" stroke="none" /><path d="M 120.65975698304385 96.23510406497455 l 15.160926000513873 -2.762825754310821 a36.4106094409579,36.4106094409579 0 0,0 0.10677876322096992,0.6158715309064519 l -15.206119581227076 2.502161190483776" fill="#ffb110" stroke="none" /><path d="M 120.86939407059847 97.66154086499901 l 36.42334479579304 -4.081311756195625 a57.651291270083306,57.651291270083306 0 0,0 0.10176168751069521,0.984452015904828 l -36.488038875785406 3.455455218007865" fill="#50ff2b" stroke="none" /><path d="M 120.9064616781168 98.02013634271609 l 28.93673542270546 -2.7403389299405947 a50.066202269553635,50.066202269553635 0 0,0 0.0736840446397167,0.856320290145549 l -28.979513090042918 2.243197592419384" fill="#a3ff21" stroke="none" /><path d="M 120.93736805541906 98.37931529534042 l 30.619404726670908 -2.370135576493951 a51.71099947033048,51.71099947033048 0 0,0 0.06091072814720675,0.8856286191931476 l -30.65557941598318 1.8441635331464696" fill="#91ff24" stroke="none" /><path d="M 120.98066250479742 99.09900007780936 l 31.019510293796593 -1.3321112407538056 a52.048100412500204,52.048100412500204 0 0,0 0.030671977801150847,0.8929811676172128 l -31.03780695859459 0.799423808572473" fill="#8dff24" stroke="none" /><path d="M 120.99303781780057 99.45929381324524 l 44.08218801314404 -1.1354007929325407 a65.09680753735776,65.09680753735776 0 0,0 0.01918362124540054,1.11734976368613 l -44.09518306598811 0.3785041132773442" fill="#35ff63" stroke="none" /><line stroke="#e1ed5e" stroke-width="0.3" x1="184.99686870605535" x2="189.99668451229388" y1="99.2704041080226" y2="99.22748670261217" /><path d="M 185.99683186730306 99.26182062694052 a86.0,86.0 0 0,1 -10.086455211305974,41.156179273409016" fill="none" id="id100" stroke="none" /><text fill="#e1ed5e" style="font-size:6.75px; font-family:Arial;" text-anchor="middle"><textPath startOffset="21.40746469413373" xlink:href="#id100">April</textPath></text><path d="M 120.99922638620191 100.18025310272382 l 30.892770707485724 0.2651772817411481 a51.8939088005393,51.8939088005393 0 0,0 -0.015292809724981116,0.8907294985511504 l -30.883666466162076 -0.7954536962613695" fill="#8fff24" stroke="none" /><path d="M 120.96210409425399 101.26102812881392 l 37.90433068052173 2.2802304089838166 a58.972855239715585,58.972855239715585 0 0,0 -0.06946451606745432,1.009998818255128 l -37.85960220328921 -2.930572651393288" fill="#43ff2d" stroke="none" /><path d="M 120.77682067341334 103.0534771498775 l 16.647220270860473 2.4465681013022285 a37.82604047959167,37.82604047959167 0 0,0 -0.09993010876786844,0.6416229833128521 l -16.602768669954337 -2.731979266546531" fill="#ffc412" stroke="none" /><path d="M 120.7213421655516 103.40968896794604 l 15.741494129853345 2.590256868726314 a36.953183634816945,36.953183634816945 0 0,0 -0.10836993135205626,0.62504896585009 l -15.694709381009055 -2.860098867496992" fill="#ffb811" stroke="none" /><path d="M 120.65975698304385 103.76489593502545 l 38.230287654508 6.966831928538243 a59.85989759722646,59.85989759722646 0 0,0 -0.19290196257212294,1.0093445807879213 l -38.10505939965372 -7.622079074359478" fill="#3aff2e" stroke="none" /><path d="M 120.592083275326 104.11899336999214 l 18.32129333543109 3.66477178483181 a39.684227083768036,39.684227083768036 0 0,0 -0.1393526547296576,0.6668528991102736 l -18.255682969877068 -3.9787411352274926" fill="#ffdc14" stroke="none" /><path d="M 120.26092885502905 105.52220625578681 l 36.34774985392653 9.90674085395179 a58.67363048328331,58.67363048328331 0 0,0 -0.27319981257687376,0.9694897549305811 l -36.17233154927508 -10.52923853278538" fill="#46ff2c" stroke="none" /><path d="M 119.94978838288452 106.5578916946017 l 24.720206779017293 8.126022973959698 a47.02154631398167,47.02154631398167 0 0,0 -0.2586511475940528,0.7646561585647835 l -24.577070209850874 -8.54918080699864" fill="#c7ff1e" stroke="none" /><path d="M 119.83427380445688 106.89939002012753 l 19.73229207099504 6.863915479389675 a41.89202446110139,41.89202446110139 0 0,0 -0.24209566500543978,0.6771846624275852 l -19.611556235945656 -7.201635098198182" fill="#fff817" stroke="none" /><path d="M 119.4528033332814 107.91128576633889 l 18.81105676928214 7.65029302558167 a41.30721153074491,41.30721153074491 0 0,0 -0.2727734606466094,0.6545570058602046 l -18.676957464099043 -7.972082540883153" fill="#fff116" stroke="none" /><path d="M 119.16976305983485 108.57439118712176 l 21.34421543570626 9.546996076931416 a44.38205864886121,44.38205864886121 0 0,0 -0.31704753709729533,0.6928060865281221 l -21.17718343375391 -9.911991145674227" fill="#e7ff1a" stroke="none" /><path d="M 119.0197475246899 108.90220220490707 l 26.605570559785928 12.45275041599158 a50.37562557180232,50.37562557180232 0 0,0 -0.37330915391511954,0.7800725541237897 l -26.387882147910897 -12.907635472180473" fill="#a0ff22" stroke="none" /><line stroke="#e1ed5e" stroke-width="0.3" x1="174.33088141563837" x2="178.70328620479359" y1="141.23008692659167" y2="143.65538615756765" /><path d="M 175.20536237346943 141.71514677278685 a86.0,86.0 0 0,1 -30.301960400862466,31.631185727798858" fill="none" id="id101" stroke="none" /><text fill="#e1ed5e" style="font-size:6.75px; font-family:Arial;" text-anchor="middle"><textPath startOffset="22.145653131862474" xlink:href="#id101">May</textPath></text><path d="M 116.79662413953412 112.60449989151573 l 23.132401611032076 17.358985423176797 a49.92131358040544,49.92131358040544 0 0,0 -0.5202467030927352,0.6810196344919209 l -22.83100293058504 -17.753525970909596" fill="#a5ff21" stroke="none" /><path d="M 116.1254893667686 113.45245675266167 l 48.37646810030581 40.35737025798503 a84.0,84.0 0 0,0 -0.933221745971542,1.0993328702017733 l -47.67655179082715 -41.181869910636365" fill="#4dd2ff" stroke="none" /><path d="M 115.41159269507618 114.26474011684316 l 21.925276174647387 20.293708301886316 a50.875614336388296,50.875614336388296 0 0,0 -0.5987433946820127,0.6358447363407277 l -21.573676946229114 -20.66709449817154" fill="#9aff22" stroke="none" /><path d="M 114.91283532996324 114.78537596483092 l 19.30577204899393 19.140766441789907 a48.186058456254116,48.186058456254116 0 0,0 -0.5874295381852803,0.5824088030708345 l -18.974350590678686 -19.469355255089404" fill="#b9ff1f" stroke="none" /><path d="M 114.39649973595853 115.28858382429668 l 19.80818082953876 21.035601609662148 a49.8939537421954,49.8939537421954 0 0,0 -0.6285930834106179,0.5818163736550287 l -19.444157974814175 -21.372535729449556" fill="#a5ff21" stroke="none" /><path d="M 112.7482090630111 116.68781488649013 l 31.60346623781723 41.369951790197995 a73.06008057396915,73.06008057396915 0 0,0 -1.0031740887353613,0.7528005382268996 l -30.888639160171103 -41.906371355688904" fill="#3fffbe" stroke="none" /><path d="M 112.45986205192187 116.90419585922612 l 12.471975620197684 16.920630241070402 a42.020416352342586,42.020416352342586 0 0,0 -0.5843218822322038,0.42300398111749343 l -12.179672727591512 -17.13223499356097" fill="#fffa17" stroke="none" /><path d="M 111.8722381534696 117.32195027204791 l 8.498958975035844 12.400235139043463 a36.03323435468597,36.03323435468597 0 0,0 -0.5132225784455788,0.34531905517412814 l -8.284840108493261 -12.544303868274714" fill="#ffac0f" stroke="none" /><path d="M 111.5731344415666 117.5232005979908 l 24.924879259487483 37.73944399850735 a66.22737267868322,66.22737267868322 0 0,0 -0.954034846341488,0.6183938610765447 l -24.273358780888984 -38.16175170128779" fill="#36ff70" stroke="none" /><path d="M 110.96478420261333 117.91015095944535 l 18.618016069908204 30.411130051967753 a56.65764088406658,56.65764088406658 0 0,0 -0.8338581375236733,0.5007078528926774 l -18.093225175827094 -30.726251905396357" fill="#5bff2a" stroke="none" /><line stroke="#e1ed5e" stroke-width="0.3" x1="143.1302829299769" x2="145.66735839644613" y1="173.24464959558577" y2="177.55315839532614" /><path d="M 143.63769802327073 174.10635135553383 a86.0,86.0 0 0,1 -40.68552437913181,11.842963189579606" fill="none" id="id102" stroke="none" /><text fill="#e1ed5e" style="font-size:6.75px; font-family:Arial;" text-anchor="middle"><textPath startOffset="21.407464694133747" xlink:href="#id102">June</textPath></text><path d="M 110.34350942703117 118.27599006163325 l 30.146033603772445 53.26515284071656 a82.20424698650146,82.20424698650146 0 0,0 -1.234065077178402,0.6845150956925378 l -29.22722433843795 -53.774800851842244" fill="#4be3ff" stroke="none" /><path d="M 109.71004243097381 118.62028667847754 l 17.556986431411396 33.66783645766567 a58.970659518803274,58.970659518803274 0 0,0 -0.9016130232897405,0.46037003393887455 l -16.976446186408076 -33.964264443277386" fill="#43ff2d" stroke="none" /><path d="M 109.3889696526874 118.78422872680471 l 16.38830862885937 32.78759535044919 a57.655191563809126,57.655191563809126 0 0,0 -0.8890972792748374,0.43490203252615245 l -15.823051100322463 -33.064091133072566" fill="#50ff2b" stroke="none" /><path d="M 108.73861861582097 119.09545874513695 l 9.484525289235625 20.725399441269943 a43.79250758390447,43.79250758390447 0 0,0 -0.6862632048193462,0.30695680260012725 l -9.127348681560653 -20.885159994779922" fill="#eeff19" stroke="none" /><path d="M 104.9986988182912 120.39639698878246 l 5.297359269973137 21.61503354977379 a43.25470041571032,43.25470041571032 0 0,0 -0.7226992178803349,0.17055504761181153 l -4.925527898352923 -21.702784741031827" fill="#f5ff19" stroke="none" /><path d="M 104.64783097203109 120.47920084513623 l 0.6649008985552745 2.9296760414836274 a24.004179574017304,24.004179574017304 0 0,0 -0.40262734305676934,0.08775075545684191 l -0.6145111388793693 -2.940658255074188" fill="#ff0000" stroke="none" /><path d="M 104.29559338865022 120.5559693870025 l 6.356644155736826 30.418843416288404 a52.07592250774441,52.07592250774441 0 0,0 -0.8766200774145286,0.17534856666003232 l -5.833527592791339 -30.523481379611297" fill="#8dff24" stroke="none" /><path d="M 103.2317021107853 120.74984581791261 l 6.669267294021996 42.821480237166966 a64.33772370511853,64.33772370511853 0 0,0 -1.092745276569765,0.16059592490549351 l -5.933196911844545 -42.929657235371344" fill="#34ff5a" stroke="none" /><path d="M 102.51750503828377 120.84855314841334 l 1.8041589333840125 14.941024084894625 a36.04955780620516,36.04955780620516 0 0,0 -0.6150124916728552,0.06891343248524277 l -1.5474105401103582 -14.969793277886838" fill="#ffac0f" stroke="none" /><path d="M 102.15924093988457 120.88869738790638 l 3.0889541292741596 29.882829127434594 a51.042055759754746,51.042055759754746 0 0,0 -0.8723340999001131,0.08261094622288528 l -2.5755204659890314 -29.931451829162665" fill="#98ff23" stroke="none" /><line stroke="#e1ed5e" stroke-width="0.3" x1="101.45913802915013" x2="101.54496967792366" y1="184.9874750549273" y2="189.98673829345242" /><path d="M 101.47630435890484 185.9873277026323 a86.0,86.0 0 0,1 -42.54439059252881,-10.42667462771756" fill="none" id="id103" stroke="none" /><text fill="#e1ed5e" style="font-size:6.75px; font-family:Arial;" text-anchor="middle"><textPath startOffset="22.145653131862474" xlink:href="#id103">July</textPath></text><line stroke="#e1ed5e" stroke-width="0.3" x1="58.13341422392154" x2="55.67067388415222" y1="173.97424548756322" y2="178.32567169271397" /><path d="M 57.64086615596768 174.84453072859336 a86.0,86.0 0 0,1 -31.369924170532247,-30.572349798747897" fill="none" id="id104" stroke="none" /><text fill="#e1ed5e" style="font-size:6.75px; font-family:Arial;" text-anchor="middle"><textPath startOffset="22.145653131862474" xlink:href="#id104">August</textPath></text><line stroke="#e1ed5e" stroke-width="0.3" x1="26.387840678322732" x2="22.057713659400548" y1="142.50000000000003" y2="145.00000000000006" /><path d="M 25.521815274538298 143.00000000000003 a86.0,86.0 0 0,1 -11.493303480769221,-40.785679425670985" fill="none" id="id105" stroke="none" /><text fill="#e1ed5e" style="font-size:6.75px; font-family:Arial;" text-anchor="middle"><textPath startOffset="21.40746469413373" xlink:href="#id105">September</textPath></text><path d="M 80.16572619554312 106.89939002012753 l -17.39494387001179 6.050864444075078 a39.417302537598516,39.417302537598516 0 0,0 -0.21682252787548328,-0.6409972768254891 l 17.49625181945964 -5.7513654927754265" fill="#ffd814" stroke="none" /><path d="M 79.73907114497094 105.5222062557868 l -4.12519779241401 1.1243410022622025 a25.275675328635863,25.275675328635863 0 0,0 -0.11050347023490807,-0.4195996754621824 l 4.1438907434536505 -1.0533608224272175" fill="#ff1302" stroke="none" /><path d="M 79.00696218219943 100.54070618675478 l -15.030387579119335 0.3871294675828542 a36.03537229346902,36.03537229346902 0 0,0 -0.010619398395508002,-0.6185267179706795 l 15.034818409113509 -0.12905583364312234" fill="#ffac0f" stroke="none" /><line stroke="#e1ed5e" stroke-width="0.3" x1="15.003131293944662" x2="10.003315487706104" y1="100.72959589197737" y2="100.7725132973878" /><path d="M 14.003168132696942 100.73817937305945 a86.0,86.0 0 0,1 10.791469493833604,-42.45332614584628" fill="none" id="id106" stroke="none" /><text fill="#e1ed5e" style="font-size:6.75px; font-family:Arial;" text-anchor="middle"><textPath startOffset="22.145653131862435" xlink:href="#id106">October</textPath></text><path d="M 79.06263194458094 98.37931529534042 l -19.556538067967903 -1.5137997306516822 a40.615039404202044,40.615039404202044 0 0,0 0.05977446342725231,-0.6946698720950832 l 19.52766998184291 1.8492906501224462" fill="#ffe815" stroke="none" /><path d="M 79.34024301695615 96.23510406497455 l -14.798135208786476 -2.6967131868609604 a36.041843891947416,36.041843891947416 0 0,0 0.11614691472169969,-0.6077297368384895 l 14.749662001782617 2.9503454887327645" fill="#ffac0f" stroke="none" /><path d="M 79.407916724674 95.88100663000787 l -5.90306607569423 -1.1807785401462771 a27.020002247082807,27.020002247082807 0 0,0 0.0948817532966971,-0.4540435371060382 l 5.881926611573166 1.2819385285377245" fill="#ff2d04" stroke="none" /><path d="M 79.56144815229197 95.17655741523228 l -29.257898905629084 -6.904784476600067 a51.06161501051314,51.06161501051314 0 0,0 0.20865349924403087,-0.8513774800968515 l 29.135057879868754 7.406017781305037" fill="#98ff23" stroke="none" /><path d="M 79.73907114497095 94.47779374421319 l -29.01154691333035 -7.907226119846898 a51.06982007286969,51.06982007286969 0 0,0 0.23779447696214173,-0.8438487091897441 l 28.871533944293628 8.404082752939654" fill="#98ff23" stroke="none" /><path d="M 79.83685265289637 94.1308016681162 l -22.98482568008682 -6.690547771034552 a44.93878946439176,44.93878946439176 0 0,0 0.22196269608708713,-0.7388416258194214 l 22.866586663996102 7.084127000444696" fill="#e0ff1b" stroke="none" /><path d="M 80.05021161711548 93.44210830539832 l -37.112092891596895 -12.19948207329805 a60.06577532382068,60.06577532382068 0 0,0 0.3304034625933423,-0.9767791283093326 l 36.897204007431185 12.834762876081545" fill="#38ff2e" stroke="none" /><path d="M 80.41425534168474 92.42381321644754 l -27.207021316030424 -10.524260318426423 a50.17159687334478,50.17159687334478 0 0,0 0.3176132651146454,-0.800592908429906 l 27.02234937594965 10.989754244069912" fill="#a2ff22" stroke="none" /><path d="M 80.9802524753101 91.09779779509293 l -37.60879984643307 -17.602817307759388 a62.524462706450734,62.524462706450734 0 0,0 0.4633382515255291,-0.9681987422493086 l 37.30108233694764 18.245828552073785" fill="#31ff44" stroke="none" /><path d="M 81.1358732173502 90.77261029715801 l -16.943158210752877 -8.287747713364487 a39.86153154743752,39.86153154743752 0 0,0 0.3059469102061326,-0.6120987661224521 l 16.798391387335002 8.577378335650709" fill="#ffde14" stroke="none" /><path d="M 81.46374523516351 90.13048839642627 l -29.047466988350674 -15.466140066212056 a53.908309391201065,53.908309391201065 0 0,0 0.44193172171760625,-0.8131045921532242 l 28.777689917017717 15.9624994918399" fill="#78ff26" stroke="none" /><path d="M 81.63589988554816 89.8137432299009 l -20.57470117761679 -11.412439915764471 a44.52790074314238,44.52790074314238 0 0,0 0.37650807131534647,-0.6652536857076163 l 20.375759741280074 11.763950371571193" fill="#e5ff1a" stroke="none" /><line stroke="#e1ed5e" stroke-width="0.3" x1="26.387840678322718" x2="22.05771365940052" y1="57.49999999999999" y2="54.99999999999999" /><path d="M 25.521815274538284 56.99999999999999 a86.0,86.0 0 0,1 29.574782752854787,-30.34633250058573" fill="none" id="id107" stroke="none" /><text fill="#e1ed5e" style="font-size:6.75px; font-family:Arial;" text-anchor="middle"><textPath startOffset="21.40746469413373" xlink:href="#id107">November</textPath></text><path d="M 81.81346652052679 89.5 l -31.475307777945 -18.172277418422873 a57.34455483684574,57.34455483684574 0 0,0 0.49951555526493363,-0.8482866173710133 l 31.158718512550287 18.70991520408746" fill="#54ff2b" stroke="none" /><path d="M 82.18462484594161 88.88188828441811 l -44.47807440834674 -27.757608014968564 a73.42884612297964,73.42884612297964 0 0,0 0.6765325071010201,-1.0636214702254487 l 43.99502420961983 28.517043159872685" fill="#3fffc2" stroke="none" /><path d="M 82.576782715395 88.27688183743585 l -25.24369584505253 -16.985085154902244 a51.425931335569715,51.425931335569715 0 0,0 0.49910155238190895,-0.7282040807558043 l 24.948404555855312 17.415923970728084" fill="#94ff23" stroke="none" /><path d="M 82.78059297857968 87.97951657250589 l -32.77813925973285 -22.88168688187579 a60.97471710832544,60.97471710832544 0 0,0 0.606509417873113,-0.85313145149384 l 32.38051474332977 23.440995560079152" fill="#2fff30" stroke="none" /><path d="M 83.2033758604659 87.39550010848427 l -19.711763006374905 -14.792074443735688 a45.64465595557196,45.64465595557196 0 0,0 0.4756782238199948,-0.6226780644564899 l 19.454932805200603 15.128273421433061" fill="#d8ff1c" stroke="none" /><path d="M 83.64595745247003 86.82634096563983 l -48.08738964287886 -38.735797168595916 a82.74835240678618,82.74835240678618 0 0,0 0.9005904354920836,-1.0985738973438577 l 47.41535238814815 39.555573347638266" fill="#4bdeff" stroke="none" /><path d="M 84.10781606972428 86.27271002978789 l -24.517204965320623 -21.17737771565305 a53.39713978460106,53.39713978460106 0 0,0 0.6051394516662627,-0.6885376120792249 l 24.15005444969577 21.595127605543578" fill="#7eff26" stroke="none" /><path d="M 84.34580500576568 86.00192230759919 l -27.65150060416108 -24.726142347854882 a58.09430685520762,58.09430685520762 0 0,0 0.6711339243367391,-0.7376937482050975 l 27.222968978982472 25.197173671617637" fill="#4cff2c" stroke="none" /><path d="M 85.60350026404147 84.71141617570332 l -16.289589556117715 -17.29897961030399 a44.761427218593006,44.761427218593006 0 0,0 0.5639305255017614,-0.5219656754105302 l 15.990229259302 17.576063031846886" fill="#e2ff1b" stroke="none" /><path d="M 86.13680546590413 84.22622945171909 l -13.851229720609174 -15.760156786883563 a41.98187567211852,41.98187567211852 0 0,0 0.5454055791142279,-0.4711083491557975 l 13.578644661732097 15.995609268504072" fill="#fff917" stroke="none" /><path d="M 86.68645165197937 83.75963576809568 l -28.117959147934098 -34.29933824427406 a65.35159783638028,65.35159783638028 0 0,0 0.873686226124646,-0.7037797787630962 l 27.525022151454205 34.77696631683055" fill="#35ff66" stroke="none" /><path d="M 87.25179093698888 83.31218511350988 l -22.292536169958684 -29.18164544650057 a57.7222766158933,57.7222766158933 0 0,0 0.7925736159742669,-0.5947620172706384 l 21.788309565073664 29.560026491035213" fill="#50ff2b" stroke="none" /><path d="M 87.83215693770416 82.88440491214696 l -19.077963483776603 -26.835544838754373 a53.92590404956423,53.92590404956423 0 0,0 0.7590839023782718,-0.5298995172868044 l 18.614484490224566 27.159089171846304" fill="#78ff26" stroke="none" /><path d="M 88.12776184653039 82.6780497279521 l -20.05497687578125 -29.260810612010005 a56.473893712983326,56.473893712983326 0 0,0 0.8043595826271147,-0.5412090246191452 l 19.549721005057147 29.600769310686257" fill="#5dff2a" stroke="none" /><path d="M 88.72937992617638 82.28071324371311 l -16.537273759541346 -25.999341118160864 a51.81310049275316,51.81310049275316 0 0,0 0.75458593949086,-0.4709174351770833 l 16.08852369126079 26.279394350179484" fill="#90ff24" stroke="none" /><line stroke="#e1ed5e" stroke-width="0.3" x1="56.869717070023135" x2="54.33264160355391" y1="26.7553504044142" y2="22.446841604673864" /><path d="M 56.362301976729285 25.89364864446614 a86.0,86.0 0 0,1 42.16139366436587,-11.88097634709845" fill="none" id="id108" stroke="none" /><text fill="#e1ed5e" style="font-size:6.75px; font-family:Arial;" text-anchor="middle"><textPath startOffset="22.145653131862474" xlink:href="#id108">December</textPath></text><path d="M 89.34428304082924 81.90426304109057 l -12.458115182380505 -21.156603183808443 a45.552117875543715,45.552117875543715 0 0,0 0.6772244907455084,-0.3909957420337244 l 12.093098223774598 21.36734582311834" fill="#d9ff1c" stroke="none" /><path d="M 92.592206182469 80.34994680014964 l -11.655997223030575 -30.918917449864686 a54.043028425597484,54.043028425597484 0 0,0 0.8708927188898368,-0.3198038694974528 l 11.12351535248661 31.11445216837086" fill="#77ff27" stroke="none" /><path d="M 93.95794788825049 79.88797359093562 l -15.802711941655616 -52.60208850025744 a75.92454295940806,75.92454295940806 0 0,0 1.251453350471445,-0.3642798314456917 l 14.897398578802546 52.86561202600565" fill="#43ffdc" stroke="none" /><path d="M 96.05791012581881 79.37332000966035 l -5.364675595813962 -28.07024961342962 a49.57828996998539,49.57828996998539 0 0,0 0.8373189248708925,-0.152587400672411 l 4.882021937392031 28.158205188033392" fill="#a9ff21" stroke="none" /><path d="M 96.41257539226777 79.30868818359171 l -6.3144138287878855 -36.41986097427221 a57.96319920389067,57.96319920389067 0 0,0 0.9818482834209584,-0.16156276139982906 l 5.688288042313854 36.522889734167705" fill="#4dff2c" stroke="none" /><path d="M 97.48249496171623 79.15144685158666 l -4.560474279898347 -37.76726916552659 a59.04161597354862,59.04161597354862 0 0,0 1.0072614911807258,-0.11286575103321862 l 3.9114768871168217 37.83999067706678" fill="#42ff2d" stroke="none" /><path d="M 98.5590905019552 79.04949213459386 l -1.8434513500973 -26.803378048456718 a47.86669662777073,47.86669662777073 0 0,0 0.82024291077449,-0.04934377666936296 l 1.3830640871903261 26.831073802950776" fill="#bdff1f" stroke="none" /><path d="M 98.9189461498227 79.02784411241856 l -2.2830118392608485 -44.289819770143964 a65.3486220567228,65.3486220567228 0 0,0 1.1208042973840289,-0.04813215905374992 l 1.5223817812759994 44.32248449762354" fill="#35ff66" stroke="none" /><path d="M 99.63950707515114 79.00309439819443 l -0.06359017131246256 -3.7038086803235433 a24.704354525464264,24.704354525464264 0 0,0 0.4240830961613138,-0.003640243335156026 l 9.073051825033647e-16 3.7043545254642645" fill="#ff0b01" stroke="none" /></svg>