<?xml version="1.0" encoding="utf-8" ?>
<svg baseProfile="full" height="200mm" version="1.1" viewBox="0,0,200,200" width="200mm" xmlns="http://www.w3.org/2000/svg" xmlns:ev="http://www.w3.org/2001/xml-events" xmlns:xlink="http://www.w3.org/1999/xlink"><defs /><rect fill="#1a1a1a" height="200" width="200" x="0" y="0" /><text alignment-baseline="middle" fill="#e1ed5e" style="dominant-baseline: central; font-size:9.0px; font-family:Arial;" text-anchor="middle" x="100.0" y="100.0">2023</text><line stroke="#e1ed5e" stroke-width="0.3" x1="100.0" x2="100.0" y1="15.0" y2="10.0" /><path d="M 100.0 14.0 a86.0,86.0 0 0,1 42.46469731375804,11.215312516191453" fill="none" id="id85" stroke="none" /><text fill="#e1ed5e" style="font-size:6.75px; font-family:Arial;" text-anchor="middle"><textPath startOffset="22.20632615414155" xlink:href="#id85">January</textPath></text><path d="M 102.88285421437855 79.19881850522331 l 1.4565946399945926 -10.510031801028054 a31.61048709550518,31.61048709550518 0 0,0 0.5383281299577304,0.07933557277579213 l -1.6372917503809787 10.483401744091294" fill="#ff7c0b" stroke="none" /><path d="M 103.59715602781102 79.31037775812273 l 2.2717989591190286 -13.066617602980413 a34.26263797640469,34.26263797640469 0 0,0 0.5801886299187876,0.10602576364526499 l -2.4963827101407174 13.02557635798441" fill="#ff9f0e" stroke="none" /><path d="M 104.307194497241 79.44645832069477 l 2.721946720882911 -12.988882998515942 a34.271023905504116,34.271023905504116 0 0,0 0.5763362591874835,0.12596478342565046 l -2.9451257042239227 12.940104716994421" fill="#ff9f0e" stroke="none" /><path d="M 105.01212808612495 79.60689891045804 l 3.16552575474576 -12.879736034038284 a34.26303711864153,34.26303711864153 0 0,0 0.5715255880626275,0.14569459794521694 l -3.386760231493412 12.8233384399242" fill="#ff9f0e" stroke="none" /><path d="M 105.71112130821622 79.79150937346287 l 3.60639373678037 -12.761027141987148 a34.26084045237033,34.26084045237033 0 0,0 0.5661355612375919,0.16527049478451414 l -3.8255195157413886 12.697058318283931" fill="#ff9f0e" stroke="none" /><line stroke="#e1ed5e" stroke-width="0.3" x1="143.23703022742887" x2="145.7803849466894" y1="26.81831364943548" y2="22.513508569990506" /><path d="M 143.74570117128098 25.957352633546492 a86.0,86.0 0 0,1 28.547481713284135,27.462654790039103" fill="none" id="id86" stroke="none" /><text fill="#e1ed5e" style="font-size:6.75px; font-family:Arial;" text-anchor="middle"><textPath startOffset="19.985693538727396" xlink:href="#id86">February</textPath></text><path d="M 110.68208982089419 81.91981866633111 l 6.751395908925945 -11.427208002876837 a34.272619540244285,34.272619540244285 0 0,0 0.5053382428452506,0.3044606370460719 l -6.947096217988833 11.309300756372151" fill="#ffa00e" stroke="none" /><path d="M 111.2981086023043 82.29822771554956 l 7.137288779005481 -11.18263818676254 a34.26620849869914,34.26620849869914 0 0,0 0.49446624173603704,0.3216145980984536 l -7.328722046525798 11.05812466450456" fill="#ff9f0e" stroke="none" /><path d="M 112.77801427241765 83.33499621200491 l 8.070330050441386 -10.52527239316739 a34.26316651759409,34.26316651759409 0 0,0 0.4649470006983689,0.3628985089121987 l -8.250309606299185 10.384795495031966" fill="#ff9f0e" stroke="none" /><path d="M 113.06298171725822 83.55741782278167 l 8.248782596984698 -10.382873424199879 a34.26071170319579,34.26071170319579 0 0,0 0.4585985534538143,0.3708214701679942 l -8.426284549003004 10.239345856767756" fill="#ff9f0e" stroke="none" /><path d="M 114.16331599549186 84.49514656593476 l 8.944798647814698 -9.79204249031341 a34.26248539988078,34.26248539988078 0 0,0 0.4320207626420284,0.4015162155521546 l -9.112027294251572 9.636621688686613" fill="#ff9f0e" stroke="none" /><path d="M 114.68862486808459 84.99185889309783 l 13.797758778933785 -14.097896336312374 a40.72634858333022,40.72634858333022 0 0,0 0.49679202366454683,0.49465864083494604 l -14.038386602765655 13.85830184482731" fill="#fff316" stroke="none" /><path d="M 114.94478906791727 85.2469230424477 l 9.43955887553587 -9.318467989293234 a34.26420436483812,34.26420436483812 0 0,0 0.41073927211474615,0.4233029249155744 l -9.598562411353726 9.154600868827545" fill="#ff9f0e" stroke="none" /><path d="M 115.4437574822437 85.77008943001954 l 14.726440610750442 -13.568973298502138 a41.02461209205871,41.02461209205871 0 0,0 0.47404204835230135,0.5234490696864327 l -14.957826299718779 13.313471441546158" fill="#fff617" stroke="none" /><path d="M 115.9244219780498 86.31012108654704 l 20.497118545212444 -17.62092660854078 a48.030148412468485,48.030148412468485 0 0,0 0.533567802727023,0.631575982480426 l -20.797396961426585 17.26549167643125" fill="#b4ff20" stroke="none" /><path d="M 116.38621287248628 86.86637796730983 l 36.05951624223687 -28.90186162553697 a67.21262075500405,67.21262075500405 0 0,0 0.7158013506877189,0.9089950246081442 l -36.551671673518555 28.276874206975787" fill="#38ff7f" stroke="none" /><path d="M 116.82858285166822 87.43820079747576 l 28.057186313012405 -20.943459336918277 a56.011915011896164,56.011915011896164 0 0,0 0.5700876372738799,0.7775988965641993 l -28.41353656279991 20.457397996682584" fill="#5dff2a" stroke="none" /><path d="M 117.2510076193507 88.02491185347247 l 10.900576774445954 -7.5668256951876645 a34.26949227050315,34.26949227050315 0 0,0 0.33221096191566146,0.4874785939316299 l -11.02921220203035 7.378069077985629" fill="#ff9f0e" stroke="none" /><path d="M 117.45458315368197 88.32363383020206 l 11.023808985449344 -7.37445455824952 a34.26299153959471,34.26299153959471 0 0,0 0.3237091811504068,0.4930312913024431 l -11.149114801957676 7.183605202969402" fill="#ff9f0e" stroke="none" /><line stroke="#e1ed5e" stroke-width="0.3" x1="172.23445277983987" x2="176.4835382374775" y1="55.19839476539836" y2="52.563006222186495" /><path d="M 173.08426987136738 54.67131705675599 a86.0,86.0 0 0,1 12.851231095245387,41.99856678651699" fill="none" id="id87" stroke="none" /><text fill="#e1ed5e" style="font-size:6.75px; font-family:Arial;" text-anchor="middle"><textPath startOffset="22.20632615414155" xlink:href="#id87">March</textPath></text><path d="M 117.84615892207809 88.93136811851018 l 11.269899746487226 -6.989872284553038 a34.261559291811636,34.261559291811636 0 0,0 0.30653360557196363,0.5038606499756094 l -11.388549150345414 6.794843861370347" fill="#ff9f0e" stroke="none" /><path d="M 118.21658344932153 89.55222093294921 l 11.506377429101176 -6.599266518652617 a34.26450301086092,34.26450301086092 0 0,0 0.28903308968030644,0.5141576153624371 l -11.618268160073915 6.400225393355386" fill="#ff9f0e" stroke="none" /><path d="M 118.56541770881063 90.18545643968196 l 24.728575911331102 -13.072675728228408 a48.97136602488118,48.97136602488118 0 0,0 0.387551384695163,0.7486259201028497 l -24.949936729186383 12.645077085865212" fill="#a9ff21" stroke="none" /><path d="M 118.89224826269711 90.83032412892265 l 11.958195117146822 -5.804114560777096 a34.292335246087454,34.292335246087454 0 0,0 0.2531783616160668,0.533258198095575 l -12.056331672604646 5.597413947040981" fill="#ffa00e" stroke="none" /><path d="M 119.196687751892 91.48605970444005 l 12.122233269425147 -5.37634260861299 a34.26098032890274,34.26098032890274 0 0,0 0.23445815062669007,0.5411617372570768 l -12.212982129894517 5.166881726769311" fill="#ff9f0e" stroke="none" /><path d="M 119.61058180528143 92.48833698450437 l 26.12070293506676 -10.005308364856718 a48.97136602488118,48.97136602488118 0 0,0 0.294750283826304,0.7897842200330975 l -26.289057807394688 9.554201007794289" fill="#a9ff21" stroke="none" /><path d="M 119.85752413597 93.16781622104841 l 12.538549371227264 -4.314015837981904 a34.259937895218904,34.259937895218904 0 0,0 0.18706367591794704,0.5592965810805773 l -12.61095034091698 4.097546153979013" fill="#ff9f0e" stroke="none" /><path d="M 120.08093135843002 93.85539295169968 l 12.68999705729836 -3.883039285847251 a34.27079573385387,34.27079573385387 0 0,0 0.16775408108236234,0.565583366388864 l -12.754957035492424 3.664026532711857" fill="#ff9f0e" stroke="none" /><path d="M 120.45610955862082 95.25157060432595 l 12.920581547372231 -2.999224708536538 a34.264116117351804,34.264116117351804 0 0,0 0.12841801251664464,0.5756727698703166 l -12.970293946890914 2.7763737691162578" fill="#ff9f0e" stroke="none" /><path d="M 120.6074358757038 95.95851677861258 l 13.016565463332412 -2.5527790666170107 a34.26452627967453,34.26452627967453 0 0,0 0.10852762671734065,0.5797589215489759 l -13.058578813959612 2.328342067605472" fill="#ff9f0e" stroke="none" /><path d="M 120.83666639777658 97.38593545837742 l 13.158439821390328 -1.650792420607232 a34.26158565741989,34.26158565741989 0 0,0 0.06837576002094137,0.5858017554864776 l -13.184905934414859 1.4240469267959017" fill="#ff9f0e" stroke="none" /><path d="M 120.94382443527127 98.46500227214037 l 13.226621825798013 -0.969394797621909 a34.26209829538044,34.26209829538044 0 0,0 0.038046280152233075,0.5885591142728583 l -13.241348696954661 0.7415766190960155" fill="#ff9f0e" stroke="none" /><line stroke="#e1ed5e" stroke-width="0.3" x1="184.98032266829074" x2="189.97916517819016" y1="98.17113171792111" y2="98.06355123074" /><path d="M 185.9800911702706 98.14961562048488 a86.0,86.0 0 0,1 -9.607161424134198,41.387399972396054" fill="none" id="id88" stroke="none" /><text fill="#e1ed5e" style="font-size:6.75px; font-family:Arial;" text-anchor="middle"><textPath startOffset="21.466115282336823" xlink:href="#id88">April</textPath></text><path d="M 120.99513854157772 99.54816195383933 l 18.240247763866083 -0.3925498226549165 a39.24447132285526,39.24447132285526 0 0,0 0.008721603253941983,0.6754977835618154 l -18.24430237423774 0.07851578103263832" fill="#ffe015" stroke="none" /><path d="M 120.92983693683757 101.71520430193887 l 13.22011544697765 1.0833910916369864 a34.264433221546085,34.264433221546085 0 0,0 -0.05323290319953015,0.5874206509805358 l -13.199507947501045 -1.3107931311660928" fill="#ff9f0e" stroke="none" /><path d="M 120.89721153311464 102.0752229133903 l 17.336242457612222 1.7215965643605888 a38.42151535543148,38.42151535543148 0 0,0 -0.07102070471142118,0.6575635208334305 l -17.30403945139975 -2.0197564070788108" fill="#ffd614" stroke="none" /><path d="M 120.8583938346157 102.4346265915055 l 13.495470357378789 1.575213856707491 a34.58709015430651,34.58709015430651 0 0,0 -0.07411270745176152,0.5907511985338567 l -13.46635614068018 -1.8072828095287425" fill="#ffa40f" stroke="none" /><path d="M 120.70491114924044 103.5080841355445 l 13.07258316479846 2.2149199907432564 a34.258895171392155,34.258895171392155 0 0,0 -0.10351660857874388,0.580576114861655 l -13.032520113880526 -2.43961485633813" fill="#ff9f0e" stroke="none" /><path d="M 120.41448212921028 104.9243191809786 l 27.191473897358886 6.559044487356933 a48.97136602488118,48.97136602488118 0 0,0 -0.20472056478570613,0.81775689198124 l -27.07454201827812 -7.026129218735568" fill="#a9ff21" stroke="none" /><path d="M 120.23288151984713 105.62410040840565 l 12.775491380427406 3.5511820805041525 a34.25986704987153,34.25986704987153 0 0,0 -0.1628279519466898,0.5668254617468931 l -12.712470791594615 -3.7705650177556276" fill="#ff9f0e" stroke="none" /><path d="M 120.02730092923936 106.31721596034902 l 12.657396866325595 3.9925254922237086 a34.272149608775706,34.272149608775706 0 0,0 -0.18230784217289267,0.5610858445534601 l -12.586796773136454 -4.209810236754964" fill="#ffa00e" stroke="none" /><path d="M 119.79798401119884 107.00284435728193 l 12.538115136945146 4.43491967606608 a34.299355011445144,34.299355011445144 0 0,0 -0.2016732479562985,0.5549181631622516 l -12.45991762798362 -4.650085636234463" fill="#ffa00e" stroke="none" /><path d="M 119.54520255179757 107.68017299344265 l 12.353638932961081 4.854290143692752 a34.2731506314486,34.2731506314486 0 0,0 -0.22048633578434787,0.5472290034639614 l -12.268249982919341 -5.066218514999527" fill="#ffa00e" stroke="none" /><path d="M 119.12269723197855 108.67885076344098 l 12.076734554534085 5.481035213652639 a34.262325004084985,34.262325004084985 0 0,0 -0.24836169293833638,0.5349489912957249 l -11.980598244755916 -5.688104272227195" fill="#ff9f0e" stroke="none" /><path d="M 118.81262510543309 109.33194174019688 l 11.899481275358687 5.902699138364322 a34.28305355483666,34.28305355483666 0 0,0 -0.2667896293199993,0.5264012489870503 l -11.796112976252418 -6.106654599054067" fill="#ffa00e" stroke="none" /><line stroke="#e1ed5e" stroke-width="0.3" x1="174.80103733775053" x2="179.2010983576182" y1="140.37084112569926" y2="142.7455964860345" /><path d="M 175.68104954172406 140.8457921977663 a86.0,86.0 0 0,1 -30.038265399797805,32.042727171017184" fill="none" id="id89" stroke="none" /><text fill="#e1ed5e" style="font-size:6.75px; font-family:Arial;" text-anchor="middle"><textPath startOffset="22.206326154141568" xlink:href="#id89">May</textPath></text><path d="M 118.48025628344425 109.97397251340804 l 11.668474247369982 6.297588065428463 a34.25944594254841,34.25944594254841 0 0,0 -0.2845550272143431,0.5165500289889298 l -11.55834281070413 -6.4975086128151975" fill="#ff9f0e" stroke="none" /><path d="M 116.93607887273984 112.41649034213515 l 10.709982859158922 7.851900061071616 a34.27991217638635,34.27991217638635 0 0,0 -0.3529830850869178,0.4728785261452825 l -10.573238507376912 -8.035091466726213" fill="#ffa00e" stroke="none" /><path d="M 116.27256486870786 113.27417163493432 l 10.28047191893412 8.386185573146854 a34.2671101353403,34.2671101353403 0 0,0 -0.3767815620161228,0.4538576635898822 l -10.134594357024454 -8.561904493850506" fill="#ff9f0e" stroke="none" /><path d="M 115.80600337817218 113.82643327865902 l 9.979772459851569 8.729889191526496 a34.2592165547872,34.2592165547872 0 0,0 -0.39209045318686897,0.4405177806778031 l -9.828023157016363 -8.900381141945166" fill="#ff9f0e" stroke="none" /><path d="M 115.32070863581623 114.36230785411682 l 9.673198796845503 9.068083099601735 a34.25899340314248,34.25899340314248 0 0,0 -0.4070187814493011,0.42675756510994806 l -9.515673464017237 -9.23324778129419" fill="#ff9f0e" stroke="none" /><path d="M 114.29624159901734 115.38237550388516 l 13.520883408876674 14.54811072540126 a40.86106275693654,40.86106275693654 0 0,0 -0.5193255266232909,0.47439155548098616 l -13.268458332786519 -14.77869504746883" fill="#fff417" stroke="none" /><path d="M 114.0293411484842 115.62618273729858 l 8.86233764387989 9.871062798830707 a34.26570425166301,34.26570425166301 0 0,0 -0.44228481764069094,0.3902649279939373 l -8.691110473332612 -10.022150868596933" fill="#ff9f0e" stroke="none" /><path d="M 113.48314897796784 116.09983520530334 l 8.519344137412215 10.17270052372264 a34.26887562972111,34.26887562972111 0 0,0 -0.455498421402001,0.3748441906392011 l -8.342975587465522 -10.317839833219018" fill="#ff9f0e" stroke="none" /><line stroke="#e1ed5e" stroke-width="0.3" x1="143.8653032363475" x2="146.44561519142675" y1="172.8068346515853" y2="177.08958963109032" /><path d="M 144.38136562736335 173.6633856474863 a86.0,86.0 0 0,1 -40.68145358897372,12.25698825130547" fill="none" id="id90" stroke="none" /><text fill="#e1ed5e" style="font-size:6.75px; font-family:Arial;" text-anchor="middle"><textPath startOffset="21.466115282336833" xlink:href="#id90">June</textPath></text><path d="M 110.5260780823613 118.17145234162733 l 12.470281501358459 21.52778311309835 a45.87877341204195,45.87877341204195 0 0,0 -0.6867642378199188,0.3899626576797648 l -12.097868496617341 -21.739248936572743" fill="#cdff1d" stroke="none" /><path d="M 108.2653958097858 119.30500536409082 l 2.1192287690342835 4.949759660088517 a26.38435244650108,26.38435244650108 0 0,0 -0.41904450302790935,0.17516063625118158 l -2.033712806508913 -4.985505339359672" fill="#ff3204" stroke="none" /><path d="M 107.2578585660854 119.70592522655815 l 9.176901723020292 24.9163492948648 a47.55258909066463,47.55258909066463 0 0,0 -0.7705340909030972,0.27628611070801706 l -8.74664807148746 -25.070622946612776" fill="#b9ff1f" stroke="none" /><line stroke="#e1ed5e" stroke-width="0.3" x1="102.19456741930631" x2="102.32365962044197" y1="184.97166512339345" y2="189.96999836594603" /><path d="M 102.22038585953345 185.97133177190398 a86.0,86.0 0 0,1 -42.740103519485714,-10.115201625700543" fill="none" id="id91" stroke="none" /><text fill="#e1ed5e" style="font-size:6.75px; font-family:Arial;" text-anchor="middle"><textPath startOffset="22.20632615414155" xlink:href="#id91">July</textPath></text><path d="M 95.51606077576429 120.51570834832081 l -3.110912858700183 14.233596334484766 a35.56959311125346,35.56959311125346 0 0,0 -0.5970268983814896,-0.13588137831892214 l 3.355459906474535 -14.177938222588157" fill="#ffb110" stroke="none" /><line stroke="#e1ed5e" stroke-width="0.3" x1="58.666819895761336" x2="56.23545636021788" y1="174.27360380694188" y2="178.64263932499728" /><path d="M 58.180547188652646 175.14741091055294 a86.0,86.0 0 0,1 -31.652253787137756,-30.449443065178592" fill="none" id="id92" stroke="none" /><text fill="#e1ed5e" style="font-size:6.75px; font-family:Arial;" text-anchor="middle"><textPath startOffset="22.20632615414155" xlink:href="#id92">August</textPath></text><path d="M 87.65650970185807 116.9893568818739 l -9.588717595940741 13.197737539556655 a37.31330074809284,37.31330074809284 0 0,0 -0.5163717143184766,-0.3819994495486182 l 9.814474280677782 -13.03072814126827" fill="#ffc712" stroke="none" /><path d="M 87.07902340077011 116.55440617244103 l -18.96809149585899 24.30199362462971 a51.82815902915419,51.82815902915419 0 0,0 -0.6985510514026333,-0.5549712031050262 l 19.38360003997898 -23.971888507519555" fill="#89ff24" stroke="none" /><path d="M 86.51685102203217 116.09983520530335 l -20.778046055647916 24.81045918359003 a53.361799745861056,53.361799745861056 0 0,0 -0.6991273020032392,-0.5958114540100725 l 21.202038834228212 -24.449123339357005" fill="#79ff26" stroke="none" /><path d="M 85.97065885151581 115.62618273729859 l -19.16214038141463 21.343205220303993 a49.68309664372124,49.68309664372124 0 0,0 -0.6314495656233811,-0.5768142066722595 l 19.526689496504865 -21.010198247045157" fill="#a1ff22" stroke="none" /><path d="M 83.72743513129214 113.27417163493432 l -31.052219204255632 25.33051738853654 a61.07337555884323,61.07337555884323 0 0,0 -0.6575045840095668,-0.8203380645034037 l 31.48364170032006 -24.792251490454873" fill="#30ff37" stroke="none" /><path d="M 83.06392112726016 112.41649034213515 l -45.966473090240584 33.69978809591215 a77.9964241515658,77.9964241515658 0 0,0 -0.7844962334882816,-1.089596654335649 l 46.539749116104474 -32.903557836125366" fill="#45fff3" stroke="none" /><path d="M 82.05923443525364 110.91462005526583 l -34.01765797022375 20.695315959345834 a60.81830177740233,60.81830177740233 0 0,0 -0.5364148855586252,-0.899062202722828 l 34.368853731480606 -20.106691662736896" fill="#30ff33" stroke="none" /><line stroke="#e1ed5e" stroke-width="0.3" x1="26.63291911575756" x2="22.317208475507996" y1="142.92168965132927" y2="145.44649492493687" /><path d="M 25.769776987707644 143.4266507060508 a86.0,86.0 0 0,1 -11.730757126820373,-40.83630448921669" fill="none" id="id93" stroke="none" /><text fill="#e1ed5e" style="font-size:6.75px; font-family:Arial;" text-anchor="middle"><textPath startOffset="21.46611528233685" xlink:href="#id93">September</textPath></text><path d="M 81.87401531095188 110.60418214915194 l -22.044051990711644 12.896355515301792 a46.539307229176224,46.539307229176224 0 0,0 -0.3985715002675516,-0.6949430064082234 l 22.262775487131574 -12.514992663035262" fill="#c5ff1e" stroke="none" /><path d="M 81.69416730710424 110.29060199501025 l -54.91749807868727 30.871805985030743 a84.0,84.0 0 0,0 -0.6976943621939338,-1.2665179264087099 l 55.44076885033272 -29.92191754022421" fill="#4dd2ff" stroke="none" /><path d="M 81.35079622478065 109.6543875284942 l -22.752861301916194 11.778783857928767 a46.620937660359715,46.620937660359715 0 0,0 -0.3628026499175009,-0.7158440473835557 l 22.952242621619963 -11.385385598842525" fill="#c4ff1e" stroke="none" /><path d="M 79.97269907076064 106.31721596034903 l -24.910284042687927 7.857456403501129 a47.12014303598496,47.12014303598496 0 0,0 -0.23733569566137686,-0.7756267855728316 l 25.041846510855432 -7.42750264537625" fill="#beff1e" stroke="none" /><path d="M 79.86692584326677 105.97154293290107 l -25.119457205167055 7.450522259247742 a47.20109563010229,47.20109563010229 0 0,0 -0.22433413766320692,-0.7809365630796058 l 25.24398397971637 -7.01702822066354" fill="#bdff1f" stroke="none" /><path d="M 79.76711848015287 105.62410040840567 l -26.80365565018246 7.45056755959767 a48.81990138684333,48.81990138684333 0 0,0 -0.2180899458049821,-0.8115938197915755 l 26.927933672329214 -6.988082806630556" fill="#abff21" stroke="none" /><path d="M 79.50377843672027 104.57218783832718 l -25.28209165625263 5.639794224574837 a46.90350241590327,46.90350241590327 0 0,0 -0.16899993321380172,-0.7895114250001134 l 25.37542562819087 -5.20376898015856" fill="#c1ff1e" stroke="none" /><path d="M 79.29508885075956 103.50808413554451 l -25.39840450875913 4.303314285344744 a46.7603855838574,46.7603855838574 0 0,0 -0.12762967938363318,-0.7947501353539395 l 25.46871594250405 -3.865484920297591" fill="#c3ff1e" stroke="none" /><path d="M 79.18660465613746 102.79330883721812 l -40.26682917642964 5.4041009612802515 a61.627845612627254,61.627845612627254 0 0,0 -0.13205524004459424,-1.0526101934650485 l 40.35388592572109 -4.710173013527794" fill="#31ff3d" stroke="none" /><path d="M 79.10278846688536 102.07522291339032 l -38.289830552230185 3.8024180205050264 a59.47816921997669,59.47816921997669 0 0,0 -0.09240472778581765,-1.0196784711547342 l 38.34960987629308 -3.142758160801726" fill="#39ff2e" stroke="none" /><line stroke="#e1ed5e" stroke-width="0.3" x1="15.007084014347285" x2="10.007500721073583" y1="101.09737516637583" y2="101.16192664675087" /><path d="M 14.007167355692545 101.11028546245083 a86.0,86.0 0 0,1 10.666146001902534,-42.60595125391555" fill="none" id="id94" stroke="none" /><text fill="#e1ed5e" style="font-size:6.75px; font-family:Arial;" text-anchor="middle"><textPath startOffset="22.20632615414155" xlink:href="#id94">October</textPath></text><path d="M 79.00175016825051 100.2711162175752 l -26.489371610418402 0.34201413424950594 a47.49157945428824,47.49157945428824 0 0,0 -0.0035182275658485343,-0.817512182755346 l 26.491334135273757 0.11400752670951544" fill="#baff1f" stroke="none" /><path d="M 79.21141760316559 97.0276538004421 l -26.19253706513949 -3.745002257306492 a47.45891229464917,47.45891229464917 0 0,0 0.12258887122694093,-0.8077074942387366 l 26.124192300473247 4.195308863937321" fill="#baff1f" stroke="none" /><path d="M 79.26566170972629 96.67025291283419 l -30.305317055379227 -4.866759661103862 a51.693608315511014,51.693608315511014 0 0,0 0.1486514655941157,-0.8773493646134866 l 30.217053728264887 5.3876948140331775" fill="#8bff24" stroke="none" /><path d="M 79.32604984820605 96.31383870115002 l -18.54992037007628 -3.3074472010851195 a39.84247204387303,39.84247204387303 0 0,0 0.1261949136018948,-0.6741382745367936 l 18.490239732564525 3.6262635530844856" fill="#ffe815" stroke="none" /><path d="M 79.46518482838121 95.60439243477599 l -58.0491999267935 -12.425799804912469 a80.36421576111829,80.36421576111829 0 0,0 0.30119594593234894,-1.3502023670247512 l 57.82670959385911 13.423180341487178" fill="#48f4ff" stroke="none" /><path d="M 79.54389044137918 95.25157060432595 l -1.8984701008957356 -0.44068747324940366 a22.94894693952247,22.94894693952247 0 0,0 0.09263418900126023,-0.3840285177339564 l 1.8906031116336608 0.47330122264275687" fill="#ff0000" stroke="none" /><path d="M 79.62865764111835 94.90015583598534 l -12.638746107499305 -3.164034772047871 a34.02877658141995,34.02877658141995 0 0,0 0.14713989216946258,-0.566990026668474 l 12.582409883459535 3.3811212242652084" fill="#ff9c0e" stroke="none" /><path d="M 79.81627453868168 94.20196356495316 l -19.111644816003874 -5.490067390642509 a40.8845620401075,40.8845620401075 0 0,0 0.20012818461398144,-0.6747327494685342 l 19.014310734278187 5.818229526857583" fill="#fff517" stroke="none" /><path d="M 80.02781315780177 93.51064311812611 l -15.66824506225174 -5.090921426129566 a37.47456780306546,37.47456780306546 0 0,0 0.20461596947774724,-0.6117757047262848 l 15.578291799002221 5.359870233778174" fill="#ffc912" stroke="none" /><path d="M 80.2630227832202 92.82701384747504 l -32.7480852345605 -11.901597662559139 a55.8437241616259,55.8437241616259 0 0,0 0.33611383309572895,-0.9006179674122967 l 32.53836681296315 12.463538767000776" fill="#5eff29" stroke="none" /><path d="M 80.52162464483688 92.15188598940014 l -12.8053656795509 -5.159463659986353 a34.80570372873979,34.80570372873979 0 0,0 0.22868725177286783,-0.5537843194780937 l 12.714656740891831 5.379122549917758" fill="#ffa70f" stroke="none" /><path d="M 80.65960295795068 91.81776055985345 l -13.443615741594073 -5.687519377181842 a35.59721483274994,35.59721483274994 0 0,0 0.24360240358057572,-0.5622679338265596 l 13.343722628170816 5.918086455595001" fill="#ffb110" stroke="none" /><path d="M 80.95270993114464 91.15688171328213 l -12.030128457715184 -5.585248535167571 a34.26344570270939,34.26344570270939 0 0,0 0.25296507175967337,-0.5328089552623126 l 11.93220519211376 5.791499906070416" fill="#ff9f0e" stroke="none" /><path d="M 81.10775173730289 90.83032412892265 l -4.091109936920251 -1.9856901917054701 a25.547542858885766,25.547542858885766 0 0,0 0.19542652161540672,-0.3939679424886659 l 4.056323402351431 2.0558177226930976" fill="#ff2603" stroke="none" /><path d="M 81.43458229118936 90.18545643968196 l -26.34887636248911 -13.929241931484166 a50.80414512029416,50.80414512029416 0 0,0 0.41536477348970974,-0.769607842300111 l 26.10520348978093 14.380730757116748" fill="#95ff23" stroke="none" /><line stroke="#e1ed5e" stroke-width="0.3" x1="26.266209847984243" x2="21.928928074336255" y1="57.711370442889674" y2="55.22380399835377" /><path d="M 25.398753493254645 57.213857153982495 a86.0,86.0 0 0,1 29.58750427330803,-30.492523968695096" fill="none" id="id95" stroke="none" /><text fill="#e1ed5e" style="font-size:6.75px; font-family:Arial;" text-anchor="middle"><textPath startOffset="21.46611528233685" xlink:href="#id95">November</textPath></text><path d="M 81.78341655067845 89.55222093294921 l -17.251450886728293 -9.894245424892087 a40.887399282590884,40.887399282590884 0 0,0 0.35540948452885435,-0.6075100167369081 l 17.078581727729116 10.189734853982888" fill="#fff517" stroke="none" /><path d="M 82.15384107792192 88.93136811851018 l -9.130142648995967 -5.662741682872957 a31.74365618204352,31.74365618204352 0 0,0 0.291999922315574,-0.46187375317021817 l 9.03131513043443 5.81906308375739" fill="#ff7d0b" stroke="none" /><path d="M 82.34701348167596 88.62581576622439 l -26.906864773961185 -17.33664934115505 a53.00841736703652,53.00841736703652 0 0,0 0.5008118266653191,-0.7627707707357598 l 26.60445631193795 17.797238175868475" fill="#7cff26" stroke="none" /><path d="M 82.7489923806493 88.02491185347247 l -9.244920440666691 -6.417522942858949 a32.25402837549194,32.25402837549194 0 0,0 0.32052422297394223,-0.4533587825710395 l 9.133083597888872 6.575708225761774" fill="#ff840c" stroke="none" /><path d="M 82.95767976084542 87.72973835380427 l -14.527768006803049 -10.45981486541693 a38.90150190007216,38.90150190007216 0 0,0 0.3959383516865405,-0.5400594667359767 l 14.345567042602875 10.708336775824407" fill="#ffdc14" stroke="none" /><path d="M 83.17141714833178 87.43820079747576 l -10.571723523303866 -7.891328063383587 a34.192209703348475,34.192209703348475 0 0,0 0.35612661519166655,-0.46862088089962756 l 10.434320967888091 8.072133720164242" fill="#ff9e0e" stroke="none" /><path d="M 83.6137871275137 86.86637796730984 l -13.15460499090978 -10.54347403420095 a37.8584838338665,37.8584838338665 0 0,0 0.41193907827333387,-0.5049886017382148 l 12.971167420560054 10.768346805547248" fill="#ffce13" stroke="none" /><path d="M 84.07557802195018 86.31012108654704 l -21.217625539358608 -18.240330786585854 a48.98030201288961,48.98030201288961 0 0,0 0.5551290668324883,-0.634608487151854 l 20.900504608948275 18.60285482994065" fill="#a9ff21" stroke="none" /><path d="M 84.5562425177563 85.77008943001954 l -14.41738334655286 -13.284207286371286 a40.604364457659415,40.604364457659415 0 0,0 0.47803456021689394,-0.5099339388435568 l 14.186581464365512 13.530410642092892" fill="#fff116" stroke="none" /><path d="M 84.80347519578584 85.50635884689758 l -17.915703255938713 -17.08704966052743 a45.75761881232086,45.75761881232086 0 0,0 0.5485156125196016,-0.5652935545850123 l 17.61892337971599 17.392907410662566" fill="#ceff1d" stroke="none" /><path d="M 85.31137513191541 84.99185889309783 l -8.869313299957467 -9.062244200701942 a33.680259790949016,33.680259790949016 0 0,0 0.41782247785851506,-0.40194489265957184 l 8.712007578486524 9.213572180123826" fill="#ff980e" stroke="none" /><path d="M 85.83668400450813 84.49514656593479 l -31.537196031095647 -34.52437284737286 a67.7603149477008,67.7603149477008 0 0,0 0.8679419141889513,-0.7792468202845524 l 30.938243129310724 35.06211867642669" fill="#39ff85" stroke="none" /><path d="M 86.10567301691215 84.25364557470407 l -7.5305734312674835 -8.534352071805209 a32.38177057795656,32.38177057795656 0 0,0 0.4211267788398757,-0.3651969927577493 l 7.382552853780834 8.662714057982638" fill="#ff860c" stroke="none" /><path d="M 86.37877921826538 84.01681056812374 l -14.063548453863316 -16.502218312464855 a42.68194189519038,42.68194189519038 0 0,0 0.5632846906762475,-0.4717347292408684 l 13.777406226227958 16.741854199099535" fill="#f3ff19" stroke="none" /><path d="M 86.65592168130627 83.78471172551755 l -11.940360318477307 -14.509535993509813 a39.79092438604403,39.79092438604403 0 0,0 0.5326235053759009,-0.4306778331986514 l 11.688833414536905 14.7129199239726" fill="#ffe715" stroke="none" /><path d="M 87.22198572758235 83.33499621200491 l -9.615721536716308 -12.540762000836615 a36.80293682304961,36.80293682304961 0 0,0 0.5060471219353598,-0.38114420078463845 l 9.398428261022557 12.704422791127108" fill="#ffc111" stroke="none" /><path d="M 87.51073957382395 83.11751280151077 l -14.195991636463319 -19.189578797648014 a44.869774045300026,44.869774045300026 0 0,0 0.624875027318834,-0.453998282035646 l 13.863571292790702 19.43109631450033" fill="#d9ff1c" stroke="none" /><path d="M 87.80319425747018 82.90503203632743 l -4.330158921120342 -6.069124129446812 a28.45550427407775,28.45550427407775 0 0,0 0.4011804153808802,-0.28105251872567333 l 4.225047366155801 6.142761490936428" fill="#ff5007" stroke="none" /><path d="M 88.09926311788651 82.69761687909137 l -7.519197936862687 -10.93209981485105 a34.26835121541431,34.26835121541431 0 0,0 0.4888874835507659,-0.33009901124018404 l 7.329905758905381 11.0599107383899" fill="#ff9f0e" stroke="none" /><path d="M 88.39885842347998 82.49532879139004 l -6.654754912201444 -10.041192579507456 a33.04621564476682,33.04621564476682 0 0,0 0.4768615720670243,-0.3101640312399783 l 6.480926314350133 10.15425553490697" fill="#ff8f0d" stroke="none" /><path d="M 88.70189139769569 82.29822771554957 l -9.380848210780853 -14.697826397983858 a38.43635323050613,38.43635323050613 0 0,0 0.5607696420229701,-0.35115389838967964 l 9.12645941638564 14.857124637696469" fill="#ffd614" stroke="none" /><line stroke="#e1ed5e" stroke-width="0.3" x1="56.762969772571076" x2="54.21961505331055" y1="26.818313649435495" y2="22.513508569990535" /><path d="M 56.25429882871897 25.957352633546506 a86.0,86.0 0 0,1 42.265352541879196,-11.944610805530505" fill="none" id="id96" stroke="none" /><text fill="#e1ed5e" style="font-size:6.75px; font-family:Arial;" text-anchor="middle"><textPath startOffset="22.20632615414155" xlink:href="#id96">December</textPath></text><path d="M 89.3179101791058 81.91981866633112 l -7.025972826347383 -11.891948567715458 a34.81241234881733,34.81241234881733 0 0,0 0.5185445873083191,-0.3003744947061468 l 6.8202315065737436 12.011127219811652" fill="#ffa70f" stroke="none" /><path d="M 89.94658935756843 81.56283822128135 l -27.116223017919065 -49.729013206633375 a77.64154222179195,77.64154222179195 0 0,0 1.1788757301238137,-0.6297145879801807 l 26.256202241266944 50.188406521115304" fill="#45ffef" stroke="none" /><path d="M 90.58718382345135 81.22770947309562 l -6.563188334133241 -13.089183500480761 a35.64247813105966,35.64247813105966 0 0,0 0.5508099175467329,-0.27028003439897297 l 6.336907149576082 13.200218695014563" fill="#ffb210" stroke="none" /><path d="M 91.23893434514133 80.91482961587045 l -6.64402020195253 -14.473382872041531 a36.9255083499604,36.9255083499604 0 0,0 0.5799377589772082,-0.26020116767315676 l 6.393900324508547 14.585604370231218" fill="#ffc212" stroke="none" /><path d="M 91.56875222667455 80.76684994638697 l -6.995988475317276 -15.959072694414896 a38.42515010013949,38.42515010013949 0 0,0 0.6080619756010341,-0.26034040449279244 l 6.720242741925933 16.077132626870476" fill="#ffd614" stroke="none" /><path d="M 91.90106846888425 80.62456947434976 l -10.810132555704682 -25.861556120264016 a49.02996701449132,49.02996701449132 0 0,0 0.7814819444428515,-0.31878610698129034 l 10.36336674167345 26.043803113428883" fill="#a8ff21" stroke="none" /><path d="M 92.23578459929587 80.48803036053334 l -5.882232786392834 -14.782427021533108 a36.909770934877315,36.909770934877315 0 0,0 0.5923435324313947,-0.22982008797446046 l 5.626906088961762 14.88148981339812" fill="#ffc212" stroke="none" /><path d="M 95.692805502759 79.44645832069477 l -2.7229893333539166 -12.993858250711284 a34.27610722874506,34.27610722874506 0 0,0 0.5785049406939787,-0.1160426488112903 l 2.4989179831928015 13.038804855599784" fill="#ffa00e" stroke="none" /><path d="M 97.47563105711357 79.15227682838746 l -1.612197213068174 -13.314472629210567 a34.41172476782245,34.41172476782245 0 0,0 0.5886589202981497,-0.06614268855644494 l 1.3827715892603065 13.340251271237609" fill="#ffa10e" stroke="none" /><path d="M 98.55514903715128 79.0497635885617 l -0.9129549679827736 -13.237782237778717 a34.26922625281573,34.26922625281573 0 0,0 0.5888398756627348,-0.03552042935192245 l 0.6849530434804159 13.251535936510946" fill="#ff9f0e" stroke="none" /><path d="M 98.91598698831166 79.02799685794201 l -0.684575949603939 -13.244240439245642 a34.26192101632813,34.26192101632813 0 0,0 0.5892384226190377,-0.02537384597392637 l 0.45649669459557723 13.25406201174376" fill="#ff9f0e" stroke="none" /></svg>